<?xml version="1.0" standalone="no"?>
<!DOCTYPE svg PUBLIC "-//W3C//DTD SVG 20010904//EN"
 "http://www.w3.org/TR/2001/REC-SVG-20010904/DTD/svg10.dtd">
<svg version="1.0" xmlns="http://www.w3.org/2000/svg"
 width="512.000000pt" height="512.000000pt" viewBox="0 0 512.000000 512.000000"
 preserveAspectRatio="xMidYMid meet">
<metadata>
Created by potrace 1.14, written by Peter Selinger 2001-2017
</metadata>
<g transform="translate(0.000000,512.000000) scale(0.100000,-0.100000)"
fill="#000000" stroke="none">
<path d="M0 2560 l0 -2560 2560 0 2560 0 0 2560 0 2560 -2560 0 -2560 0 0
-2560z m2040 1276 l0 -594 108 54 c62 32 149 65 207 81 90 24 118 26 280 27
135 0 202 -4 269 -17 275 -55 484 -165 672 -352 194 -193 313 -417 375 -704
15 -69 22 -149 26 -281 5 -159 2 -202 -16 -309 -51 -300 -185 -565 -386 -766
-183 -184 -398 -299 -633 -340 -98 -17 -302 -20 -388 -4 -156 27 -308 95 -441
196 -46 35 -85 63 -88 63 -3 0 -5 -54 -5 -120 l0 -120 -435 0 -435 0 0 1890 0
1890 445 0 445 0 0 -594z"/>
<path d="M2455 2508 c-68 -13 -180 -68 -237 -118 -186 -161 -228 -455 -96
-662 64 -102 163 -179 279 -219 49 -17 87 -22 159 -22 186 0 336 83 440 244
51 79 74 164 74 274 1 326 -293 565 -619 503z"/>
</g>
</svg>
